<?xml version="1.0" encoding="utf-8"?>
<!-- Generator: Adobe Illustrator 24.1.0, SVG Export Plug-In . SVG Version: 6.00 Build 0)  -->
<svg version="1.1" id="Layer_1" xmlns="http://www.w3.org/2000/svg" xmlns:xlink="http://www.w3.org/1999/xlink" x="0px" y="0px"
	 viewBox="0 0 2500 2500" style="enable-background:new 0 0 2500 2500;" xml:space="preserve">
<style type="text/css">
	.st0{fill:none;}
	.st1{fill:#FFFFFF;}
</style>
<g>
	<path class="st0" d="M1392.2,771.3c0-94.1,97.9-88.7,103.8-88.7c46.6,0,137.2,0.1,160.5,0V383.7h-0.1h-276.9
		c-164.3,0-347.1,69.1-347.1,307.3c0.8,83,0,162.5,0,251.9H842.3v302.5h196v870.9h360.1v-876.6h237.7l21.5-297.6h-265.4
		C1392.2,942.1,1392.8,809.7,1392.2,771.3z"/>
	<path class="st1" d="M1250,0C559.6,0,0,559.6,0,1250s559.6,1250,1250,1250s1250-559.6,1250-1250S1940.4,0,1250,0z M1636.1,1239.7
		h-237.7v876.6h-360.1v-870.9h-196V942.9h190.1c0-89.4,0.8-168.9,0-251.9c0-238.2,182.8-307.3,347.1-307.3h276.9h0.1v298.9
		c-23.3,0.1-113.9,0-160.5,0c-5.9,0-103.8-5.4-103.8,88.7c0.6,38.4,0,170.8,0,170.8h265.4L1636.1,1239.7z"/>
</g>
</svg>
